<?xml version="1.0" standalone="no"?>
<!DOCTYPE svg PUBLIC "-//W3C//DTD SVG 20010904//EN"
 "http://www.w3.org/TR/2001/REC-SVG-20010904/DTD/svg10.dtd">
<svg version="1.0" xmlns="http://www.w3.org/2000/svg"
 width="500.000000pt" height="500.000000pt" viewBox="0 0 500.000000 500.000000"
 preserveAspectRatio="xMidYMid meet">
<metadata>
Created by potrace 1.14, written by Peter Selinger 2001-2017
</metadata>
<g transform="translate(0.000000,500.000000) scale(0.100000,-0.100000)"
fill="#000000" stroke="none">
<path d="M0 2500 l0 -2500 2500 0 2500 0 0 2500 0 2500 -2500 0 -2500 0 0
-2500z m2809 2204 c12 -15 21 -37 21 -49 0 -38 -37 -75 -75 -75 -48 0 -79 29
-79 75 0 71 90 104 133 49z m928 -25 c68 -21 162 -86 212 -145 175 -211 133
-518 -94 -689 -76 -57 -108 -92 -141 -155 -16 -29 -19 -60 -21 -186 -2 -174
-16 -244 -71 -349 -42 -80 -141 -189 -213 -235 -180 -116 -413 -131 -604 -40
-34 16 -89 50 -121 76 -99 77 -128 89 -220 89 -75 0 -85 -2 -135 -34 -192
-122 -241 -141 -380 -148 -71 -4 -117 -1 -173 11 -90 20 -204 75 -243 117
l-28 29 0 467 0 466 39 29 c123 89 252 123 431 114 178 -10 197 -2 341 134
129 123 208 169 336 196 85 19 225 14 302 -11 108 -33 161 -15 239 83 70 87
126 134 201 167 108 48 218 52 343 14z m-1656 -274 c63 -33 85 -110 51 -174
-36 -67 -121 -90 -183 -48 -43 29 -59 60 -59 116 0 37 5 49 39 82 32 33 45 39
80 39 23 0 55 -7 72 -15z m1968 -729 c40 -21 61 -59 61 -110 0 -140 -201 -171
-241 -37 -32 108 80 198 180 147z m-3001 -2792 c35 -10 26 -24 -17 -24 -48 0
-79 -24 -87 -67 -5 -27 -1 -37 25 -64 27 -27 37 -31 67 -26 25 4 34 2 31 -6
-2 -7 -16 -13 -31 -15 -90 -11 -150 92 -95 162 31 39 63 51 107 40z m252 -73
c0 -83 12 -111 49 -111 39 0 50 22 53 103 4 102 23 101 23 -2 0 -64 -4 -83
-19 -100 -23 -25 -72 -28 -104 -5 -20 14 -22 23 -22 105 0 53 4 89 10 89 6 0
10 -33 10 -79z m404 69 c38 -14 32 -27 -11 -26 -31 1 -39 -3 -41 -19 -2 -16 8
-26 43 -43 41 -20 45 -25 45 -57 0 -37 -20 -55 -62 -55 -26 0 -67 25 -57 34 3
3 20 0 37 -6 27 -11 34 -10 48 4 23 23 12 43 -34 67 -41 21 -54 43 -42 75 5
16 14 23 47 35 1 1 13 -3 27 -9z m384 -7 c2 -9 -8 -13 -32 -13 l-36 0 0 -90
c0 -73 -3 -90 -15 -90 -12 0 -15 17 -15 90 l0 90 -30 0 c-20 0 -30 5 -30 15 0
13 13 15 77 13 50 -2 78 -7 81 -15z m355 -23 c86 -95 -43 -228 -141 -145 -38
32 -48 72 -28 119 29 70 116 83 169 26z m362 -68 c11 13 34 42 52 63 l32 40 1
-102 c0 -117 -17 -142 -22 -32 l-3 70 -39 -52 -38 -52 -23 29 c-12 16 -32 40
-43 54 l-21 25 -1 -72 c0 -42 -4 -73 -10 -73 -6 0 -10 42 -10 107 l0 107 52
-68 52 -68 21 24z m379 98 c38 -14 32 -27 -11 -26 -31 1 -39 -3 -41 -19 -2
-16 8 -26 43 -43 41 -20 45 -25 45 -57 0 -37 -20 -55 -62 -55 -26 0 -67 25
-57 34 3 3 20 0 37 -6 27 -11 34 -10 48 4 23 23 12 43 -34 67 -41 21 -54 43
-42 75 5 16 14 23 47 35 1 1 13 -3 27 -9z m516 -91 l0 -89 50 0 c28 0 50 -4
50 -10 0 -6 -28 -10 -65 -10 l-65 0 0 98 c0 54 3 102 6 105 17 17 24 -11 24
-94z m330 0 l0 -89 50 0 c28 0 50 -4 50 -10 0 -6 -28 -10 -65 -10 l-65 0 0 98
c0 54 3 102 6 105 17 17 24 -11 24 -94z m438 95 c36 -10 25 -24 -20 -24 -29 0
-49 -7 -65 -22 -52 -48 -10 -143 60 -136 18 2 34 -1 37 -7 3 -6 -13 -11 -36
-13 -49 -4 -99 31 -109 77 -9 44 18 99 57 116 38 16 44 17 76 9z"/>
<path d="M1519 3958 c-4 -9 -3 -940 1 -943 3 -2 5 210 5 471 0 261 -1 474 -2
474 -2 0 -4 -1 -4 -2z"/>
<path d="M2312 837 c-30 -32 -29 -81 3 -112 51 -52 135 -11 135 66 0 11 -11
31 -25 44 -32 33 -83 34 -113 2z"/>
</g>
</svg>
